<svg xmlns="http://www.w3.org/2000/svg" xmlns:xlink="http://www.w3.org/1999/xlink" width="500" zoomAndPan="magnify" viewBox="0 0 375 374.999991" height="500" preserveAspectRatio="xMidYMid meet" version="1.0"><defs><clipPath id="f1d59231a6"><path d="M 141.644531 141.644531 L 233.144531 141.644531 L 233.144531 233.144531 L 141.644531 233.144531 Z M 141.644531 141.644531 " clip-rule="nonzero"/></clipPath><clipPath id="5a99a8054b"><path d="M 155.390625 150 L 219.890625 150 L 219.890625 225 L 155.390625 225 Z M 155.390625 150 " clip-rule="nonzero"/></clipPath></defs><g clip-path="url(#f1d59231a6)"><path fill="#ffffff" d="M 233.355469 233.355469 L 141.644531 233.355469 L 141.644531 141.644531 L 233.355469 141.644531 Z M 142.226562 232.769531 L 232.769531 232.769531 L 232.769531 142.226562 L 142.226562 142.226562 Z M 142.226562 232.769531 " fill-opacity="1" fill-rule="nonzero"/></g><g clip-path="url(#5a99a8054b)"><path fill="#ffffff" d="M 187.503906 149.996094 C 169.78125 149.996094 155.414062 152.601562 155.414062 155.8125 L 155.414062 160.890625 C 155.414062 162.199219 157.789062 163.402344 161.800781 164.375 C 161.304688 164.023438 161.039062 163.660156 161.039062 163.28125 C 161.039062 160.753906 172.886719 158.707031 187.503906 158.707031 C 202.121094 158.707031 213.972656 160.753906 213.972656 163.28125 C 213.972656 163.660156 213.707031 164.023438 213.207031 164.375 C 217.222656 163.402344 219.597656 162.199219 219.597656 160.890625 L 219.597656 155.8125 C 219.597656 152.601562 205.230469 149.996094 187.503906 149.996094 Z M 187.503906 162.480469 C 174.398438 162.480469 163.773438 164.40625 163.773438 166.78125 L 163.773438 168.566406 C 163.914062 168.484375 164.070312 168.402344 164.238281 168.324219 C 166.011719 167.480469 168.054688 168.796875 168.054688 170.757812 L 168.054688 209.835938 L 170.214844 209.835938 L 170.214844 168.679688 C 170.214844 167.515625 171.066406 166.53125 172.21875 166.367188 C 172.238281 166.363281 172.253906 166.363281 172.273438 166.359375 C 174.015625 166.113281 175.570312 167.460938 175.570312 169.21875 L 175.570312 217.46875 L 178.609375 217.46875 L 178.609375 168.4375 C 178.609375 166.898438 179.816406 165.625 181.355469 165.554688 C 181.375 165.550781 181.394531 165.550781 181.414062 165.550781 C 183.0625 165.476562 184.445312 166.785156 184.445312 168.4375 L 184.445312 224.992188 L 190.84375 224.992188 L 190.84375 168.449219 C 190.84375 166.800781 192.222656 165.484375 193.871094 165.5625 C 193.890625 165.566406 193.910156 165.566406 193.929688 165.566406 C 195.46875 165.640625 196.679688 166.910156 196.679688 168.453125 L 196.679688 217.46875 L 199.71875 217.46875 L 199.71875 169.257812 C 199.71875 167.496094 201.28125 166.148438 203.027344 166.398438 C 203.042969 166.402344 203.0625 166.40625 203.078125 166.40625 C 204.226562 166.574219 205.074219 167.558594 205.074219 168.71875 L 205.074219 209.835938 L 207.234375 209.835938 L 207.234375 170.90625 C 207.234375 168.863281 209.433594 167.542969 211.210938 168.550781 L 211.238281 168.566406 L 211.238281 166.78125 C 211.238281 164.40625 200.613281 162.480469 187.503906 162.480469 " fill-opacity="1" fill-rule="nonzero"/></g></svg>