<svg xmlns="http://www.w3.org/2000/svg" xmlns:xlink="http://www.w3.org/1999/xlink" width="250" zoomAndPan="magnify" viewBox="0 0 187.5 187.499992" height="250" preserveAspectRatio="xMidYMid meet" version="1.0"><defs><clipPath id="bf81daff34"><path d="M 0.675781 0.675781 L 176.417969 0.675781 L 176.417969 176.417969 L 0.675781 176.417969 Z M 0.675781 0.675781 " clip-rule="nonzero"/></clipPath><clipPath id="899e260095"><path d="M 27.082031 16.726562 L 150.964844 16.726562 L 150.964844 160.777344 L 27.082031 160.777344 Z M 27.082031 16.726562 " clip-rule="nonzero"/></clipPath><clipPath id="8ab18dad35"><rect x="0" width="177" y="0" height="177"/></clipPath></defs><g transform="matrix(1, 0, 0, 1, 4, 4)"><g clip-path="url(#8ab18dad35)"><g clip-path="url(#bf81daff34)"><path fill="#051d40" d="M 176.824219 176.824219 L 0.675781 176.824219 L 0.675781 0.675781 L 176.824219 0.675781 Z M 1.796875 175.703125 L 175.703125 175.703125 L 175.703125 1.796875 L 1.796875 1.796875 Z M 1.796875 175.703125 " fill-opacity="1" fill-rule="nonzero"/></g><g clip-path="url(#899e260095)"><path fill="#051d40" d="M 88.761719 16.71875 C 54.71875 16.71875 27.125 21.722656 27.125 27.890625 L 27.125 37.644531 C 27.125 40.15625 31.6875 42.46875 39.394531 44.335938 C 38.441406 43.664062 37.929688 42.960938 37.929688 42.238281 C 37.929688 37.382812 60.6875 33.453125 88.761719 33.453125 C 116.835938 33.453125 139.59375 37.382812 139.59375 42.238281 C 139.59375 42.960938 139.085938 43.664062 138.132812 44.335938 C 145.835938 42.46875 150.402344 40.15625 150.402344 37.644531 L 150.402344 27.890625 C 150.402344 21.722656 122.804688 16.71875 88.761719 16.71875 Z M 88.761719 40.695312 C 63.585938 40.695312 43.179688 44.394531 43.179688 48.960938 L 43.179688 52.386719 C 43.453125 52.226562 43.753906 52.070312 44.078125 51.917969 C 47.480469 50.296875 51.40625 52.828125 51.40625 56.597656 L 51.40625 131.652344 L 55.550781 131.652344 L 55.550781 52.601562 C 55.550781 50.367188 57.191406 48.472656 59.402344 48.164062 C 59.4375 48.15625 59.472656 48.152344 59.507812 48.148438 C 62.851562 47.675781 65.839844 50.265625 65.839844 53.640625 L 65.839844 146.308594 L 71.675781 146.308594 L 71.675781 52.140625 C 71.675781 49.183594 73.996094 46.738281 76.949219 46.597656 C 76.988281 46.597656 77.027344 46.59375 77.0625 46.59375 C 80.230469 46.449219 82.886719 48.964844 82.886719 52.136719 L 82.886719 160.765625 L 95.171875 160.765625 L 95.171875 52.164062 C 95.171875 48.996094 97.824219 46.46875 100.988281 46.621094 C 101.023438 46.621094 101.0625 46.625 101.101562 46.625 C 104.058594 46.769531 106.382812 49.207031 106.382812 52.171875 L 106.382812 146.308594 L 112.21875 146.308594 L 112.21875 53.71875 C 112.21875 50.332031 115.222656 47.742188 118.574219 48.226562 C 118.609375 48.230469 118.640625 48.234375 118.675781 48.238281 C 120.878906 48.5625 122.507812 50.453125 122.507812 52.679688 L 122.507812 131.652344 L 126.652344 131.652344 L 126.652344 56.878906 C 126.652344 52.953125 130.882812 50.421875 134.296875 52.355469 L 134.347656 52.386719 L 134.347656 48.960938 C 134.347656 44.394531 113.9375 40.695312 88.761719 40.695312 " fill-opacity="1" fill-rule="nonzero"/></g></g></g></svg>