<svg xmlns="http://www.w3.org/2000/svg" xmlns:xlink="http://www.w3.org/1999/xlink" width="250" zoomAndPan="magnify" viewBox="0 0 187.5 187.499992" height="250" preserveAspectRatio="xMidYMid meet" version="1.0"><defs><clipPath id="f7b953ff1c"><path d="M 47.765625 47.765625 L 139.023438 47.765625 L 139.023438 139.023438 L 47.765625 139.023438 Z M 47.765625 47.765625 " clip-rule="nonzero"/></clipPath><clipPath id="eaf1e60455"><path d="M 61.476562 56.101562 L 125.804688 56.101562 L 125.804688 130.902344 L 61.476562 130.902344 Z M 61.476562 56.101562 " clip-rule="nonzero"/></clipPath></defs><g clip-path="url(#f7b953ff1c)"><path fill="#051d40" d="M 139.234375 139.234375 L 47.765625 139.234375 L 47.765625 47.765625 L 139.234375 47.765625 Z M 48.347656 138.652344 L 138.652344 138.652344 L 138.652344 48.347656 L 48.347656 48.347656 Z M 48.347656 138.652344 " fill-opacity="1" fill-rule="nonzero"/></g><g clip-path="url(#eaf1e60455)"><path fill="#051d40" d="M 93.503906 56.097656 C 75.828125 56.097656 61.5 58.695312 61.5 61.898438 L 61.5 66.960938 C 61.5 68.265625 63.867188 69.46875 67.871094 70.4375 C 67.375 70.089844 67.109375 69.722656 67.109375 69.347656 C 67.109375 66.828125 78.929688 64.785156 93.503906 64.785156 C 108.082031 64.785156 119.902344 66.828125 119.902344 69.347656 C 119.902344 69.722656 119.636719 70.089844 119.140625 70.4375 C 123.140625 69.46875 125.511719 68.265625 125.511719 66.960938 L 125.511719 61.898438 C 125.511719 58.695312 111.183594 56.097656 93.503906 56.097656 Z M 93.503906 68.546875 C 80.433594 68.546875 69.835938 70.46875 69.835938 72.839844 L 69.835938 74.617188 C 69.980469 74.535156 70.132812 74.453125 70.300781 74.375 C 72.070312 73.53125 74.105469 74.847656 74.105469 76.804688 L 74.105469 115.777344 L 76.261719 115.777344 L 76.261719 74.730469 C 76.261719 73.570312 77.113281 72.585938 78.261719 72.425781 C 78.277344 72.421875 78.296875 72.417969 78.316406 72.414062 C 80.050781 72.171875 81.601562 73.515625 81.601562 75.269531 L 81.601562 123.386719 L 84.632812 123.386719 L 84.632812 74.492188 C 84.632812 72.953125 85.839844 71.683594 87.371094 71.613281 C 87.390625 71.609375 87.410156 71.609375 87.429688 71.609375 C 89.078125 71.535156 90.453125 72.839844 90.453125 74.488281 L 90.453125 130.894531 L 96.832031 130.894531 L 96.832031 74.5 C 96.832031 72.855469 98.210938 71.542969 99.855469 71.621094 C 99.871094 71.625 99.894531 71.625 99.914062 71.625 C 101.449219 71.699219 102.65625 72.964844 102.65625 74.503906 L 102.65625 123.386719 L 105.6875 123.386719 L 105.6875 75.308594 C 105.6875 73.550781 107.246094 72.207031 108.984375 72.457031 C 109.003906 72.457031 109.019531 72.460938 109.039062 72.464844 C 110.183594 72.632812 111.027344 73.613281 111.027344 74.769531 L 111.027344 115.777344 L 113.179688 115.777344 L 113.179688 76.949219 C 113.179688 74.914062 115.378906 73.597656 117.148438 74.601562 L 117.175781 74.617188 L 117.175781 72.839844 C 117.175781 70.46875 106.578125 68.546875 93.503906 68.546875 " fill-opacity="1" fill-rule="nonzero"/></g></svg>